<?xml version="1.0" standalone="no"?>
<!DOCTYPE svg PUBLIC "-//W3C//DTD SVG 20010904//EN"
 "http://www.w3.org/TR/2001/REC-SVG-20010904/DTD/svg10.dtd">
<svg version="1.0" xmlns="http://www.w3.org/2000/svg"
 width="288.000000pt" height="358.000000pt" viewBox="0 0 288.000000 358.000000"
 preserveAspectRatio="xMidYMid meet">

<g transform="translate(0.000000,358.000000) scale(0.100000,-0.100000)"
fill="#000000" stroke="none">
<path d="M1625 3120 c26 -11 473 -276 492 -292 8 -6 51 -84 95 -171 l79 -159
-27 -40 c-16 -22 -47 -56 -70 -76 -40 -36 -43 -37 -105 -33 -55 4 -59 5 -31
11 51 12 50 20 -4 22 l-49 1 45 7 c44 7 40 9 -25 15 -41 4 -38 8 10 15 l50 7
-53 1 c-45 2 -54 5 -64 27 -14 31 -45 37 -163 33 l-90 -4 101 -2 c62 -1 106
-7 116 -14 9 -7 41 -53 72 -101 l56 -88 61 32 c56 30 189 157 189 180 0 22
-160 326 -181 345 -32 29 -495 294 -511 293 -7 0 -4 -4 7 -9z m505 -790 c-20
-13 -77 -13 -85 0 -4 6 14 10 47 10 38 0 49 -3 38 -10z"/>
<path d="M1389 3067 c5 -5 19 -7 32 -5 20 3 19 5 -9 9 -20 3 -29 2 -23 -4z"/>
<path d="M1288 3048 c-21 -12 -38 -26 -38 -31 0 -7 79 33 99 49 16 14 -31 0
-61 -18z"/>
<path d="M971 2933 c-51 -54 -90 -104 -89 -113 3 -11 14 -14 48 -12 54 5 85
20 124 61 20 20 39 31 58 31 32 0 33 -3 13 -84 -8 -33 -12 -63 -9 -68 3 -5 -6
-22 -20 -38 -37 -45 -64 -127 -97 -299 -61 -317 -139 -643 -285 -1191 -21 -78
-36 -162 -37 -200 l-2 -64 54 -33 c30 -18 58 -34 63 -35 5 -2 -1 -78 -14 -169
-19 -144 -20 -174 -9 -221 6 -31 21 -64 31 -73 18 -16 21 -16 66 9 l48 27 71
-71 c39 -38 74 -70 78 -70 11 0 168 118 189 142 10 11 18 25 18 32 -1 6 -6 1
-13 -12 -7 -12 -53 -52 -103 -87 l-89 -64 -81 82 c-91 91 -87 82 -105 277 -7
81 -7 79 -6 -40 2 -98 6 -131 18 -151 16 -24 16 -25 -22 -47 -51 -29 -57 -28
-75 13 -19 47 -18 119 6 282 11 75 18 143 16 150 -4 10 29 12 149 10 139 -2
155 -4 155 -19 0 -15 -15 -18 -127 -20 l-127 -3 40 -26 c21 -15 73 -57 114
-93 41 -37 110 -92 153 -122 50 -36 84 -67 92 -87 10 -22 14 -26 15 -13 0 11
-12 35 -27 54 l-26 35 31 -5 c31 -4 32 -4 32 35 0 26 6 44 18 53 15 12 15 12
-5 7 -18 -4 -23 -12 -23 -38 0 -30 -3 -33 -36 -37 -25 -3 -43 1 -58 14 -21 17
-20 17 24 18 64 1 31 20 -35 20 -28 0 -59 7 -69 15 -18 14 -12 15 65 16 l84 1
-55 10 c-30 5 -71 7 -90 5 -25 -3 -43 1 -59 14 -23 19 -22 19 90 20 l114 2
-75 8 c-41 5 -95 7 -120 4 -35 -4 -50 -1 -70 15 l-25 20 150 -3 c166 -2 151 4
154 -69 1 -16 6 -28 12 -28 8 0 10 14 6 41 l-5 41 30 -28 c22 -21 28 -23 20
-9 -17 33 -54 62 -107 85 -74 32 -86 46 -79 90 5 32 3 40 -14 49 -11 6 -29 11
-39 10 -16 0 -16 -1 2 -9 12 -5 -49 -9 -160 -11 l-180 -2 105 -9 c58 -5 142
-6 188 -3 76 5 83 4 80 -12 -3 -16 -20 -18 -178 -21 l-175 -2 -44 27 -43 28 6
51 c3 28 19 103 36 165 158 597 224 878 265 1135 32 200 65 326 77 299 6 -15
7 -13 3 8 -4 17 -2 26 4 23 5 -4 13 -1 17 5 4 8 3 9 -4 5 -19 -11 -14 9 8 37
11 14 32 27 47 29 28 3 56 40 68 89 6 24 4 25 -29 21 -22 -3 -36 0 -36 7 0 16
57 13 97 -5 21 -11 32 -22 29 -30 -4 -8 -9 -21 -12 -29 -5 -11 2 -15 27 -16
34 -2 34 -2 -6 -9 -22 -4 -34 -8 -27 -9 7 0 10 -5 7 -11 -13 -21 43 -9 65 15
l23 24 48 -26 c26 -15 45 -31 43 -35 -3 -4 4 -8 15 -8 12 0 21 2 21 4 0 2 -53
37 -117 77 -127 78 -228 129 -255 129 -9 0 -40 -20 -69 -45 -50 -43 -96 -61
-135 -53 -14 2 1 24 67 97 46 51 93 97 104 102 16 6 16 8 3 8 -9 1 -57 -43
-107 -96z m209 -53 c12 -8 11 -10 -7 -10 -13 0 -23 5 -23 10 0 13 11 13 30 0z
m20 -60 c0 -5 -13 -10 -30 -10 -16 0 -30 5 -30 10 0 6 14 10 30 10 17 0 30 -4
30 -10z m-10 -30 c0 -13 -20 -13 -40 0 -12 8 -9 10 13 10 15 0 27 -4 27 -10z
m145 0 c7 -12 -12 -12 -40 0 -18 8 -17 9 7 9 15 1 30 -3 33 -9z m-157 -32 c-2
-6 -11 -13 -19 -16 -12 -3 -12 -2 0 6 11 8 9 11 -10 15 -22 4 -22 4 4 6 18 0
27 -3 25 -11z m21 -1934 c1 -2 -56 -2 -127 -1 -112 1 -134 4 -154 20 l-23 19
30 -5 c17 -2 68 -1 115 2 82 6 111 -1 159 -35z"/>
<path d="M1118 3023 c6 -2 18 -2 25 0 6 3 1 5 -13 5 -14 0 -19 -2 -12 -5z"/>
<path d="M1368 2703 c12 -2 32 -2 45 0 12 2 2 4 -23 4 -25 0 -35 -2 -22 -4z"/>
<path d="M1178 2693 c7 -3 16 -2 19 1 4 3 -2 6 -13 5 -11 0 -14 -3 -6 -6z"/>
<path d="M1130 2606 c0 -2 7 -9 15 -16 13 -11 14 -10 9 4 -5 14 -24 23 -24 12z"/>
<path d="M1348 2583 c7 -3 16 -2 19 1 4 3 -2 6 -13 5 -11 0 -14 -3 -6 -6z"/>
<path d="M1428 2563 c7 -3 16 -2 19 1 4 3 -2 6 -13 5 -11 0 -14 -3 -6 -6z"/>
<path d="M1470 2550 c8 -5 20 -10 25 -10 6 0 3 5 -5 10 -8 5 -19 10 -25 10 -5
0 -3 -5 5 -10z"/>
<path d="M1555 2515 c17 -8 41 -14 55 -14 15 0 5 6 -25 14 -62 17 -69 17 -30
0z"/>
<path d="M1658 2493 c12 -2 30 -2 40 0 9 3 -1 5 -23 4 -22 0 -30 -2 -17 -4z"/>
<path d="M1970 2480 c0 -5 11 -10 25 -10 14 0 25 5 25 10 0 6 -11 10 -25 10
-14 0 -25 -4 -25 -10z"/>
<path d="M1998 2453 c12 -2 32 -2 45 0 12 2 2 4 -23 4 -25 0 -35 -2 -22 -4z"/>
<path d="M1330 2445 c0 -5 5 -17 10 -25 5 -8 10 -10 10 -5 0 6 -5 17 -10 25
-5 8 -10 11 -10 5z"/>
<path d="M1202 2415 c0 -16 2 -22 5 -12 2 9 2 23 0 30 -3 6 -5 -1 -5 -18z"/>
<path d="M1350 2398 c0 -3 53 -156 119 -339 126 -356 191 -550 191 -573 0 -12
-6 -11 -42 1 -78 27 -254 -3 -309 -53 -49 -45 8 -117 150 -188 135 -68 155
-109 107 -213 -13 -28 -22 -54 -18 -57 3 -3 1 -6 -5 -6 -13 0 -93 -156 -92
-179 0 -9 5 -2 12 15 7 17 26 58 42 91 l30 60 114 48 c62 27 115 55 118 63 3
8 -17 90 -46 183 -40 132 -50 177 -45 208 7 46 -53 232 -216 666 -91 243 -110
290 -110 273z m300 -937 c4 -8 6 -20 3 -27 -3 -8 18 -85 46 -173 28 -87 51
-168 51 -178 0 -13 -22 -28 -84 -56 -130 -57 -122 -56 -101 -19 10 17 23 28
28 25 4 -3 8 1 6 8 -3 28 1 39 16 39 8 0 15 5 15 10 0 6 -4 10 -10 10 -5 0
-10 7 -10 15 0 8 5 15 12 15 6 0 4 7 -5 18 -22 24 -21 32 1 33 9 0 2 6 -17 13
-44 16 -52 36 -14 37 27 1 14 5 -96 24 -45 8 -31 19 37 26 51 5 47 6 -34 8
-75 1 -96 5 -115 21 l-24 20 30 -6 c17 -2 64 -1 105 4 l75 9 -116 2 c-101 1
-118 4 -133 20 -43 48 10 95 126 111 90 12 197 7 208 -9z"/>
<path d="M1415 1430 c45 -12 213 -12 220 0 4 6 -39 10 -122 9 -81 -1 -117 -4
-98 -9z"/>
<path d="M1395 1380 c82 -11 176 -10 200 0 12 5 -34 8 -120 8 -111 -1 -128 -2
-80 -8z"/>
<path d="M1214 2310 c3 -41 11 -160 16 -265 11 -211 24 -359 45 -510 l14 -100
-5 115 c-8 166 -63 822 -70 829 -3 3 -3 -28 0 -69z"/>
<path d="M733 1009 c-18 -5 -33 -11 -33 -12 0 -1 78 -3 173 -3 132 -2 155 0
97 6 -169 17 -206 19 -237 9z"/>
<path d="M1452 720 c0 -14 2 -19 5 -12 2 6 2 18 0 25 -3 6 -5 1 -5 -13z"/>
<path d="M1330 716 c0 -2 9 -6 20 -9 11 -3 18 -1 14 4 -5 9 -34 13 -34 5z"/>
<path d="M1461 674 c0 -11 3 -14 6 -6 3 7 2 16 -1 19 -3 4 -6 -2 -5 -13z"/>
</g>
</svg>
