<?xml version="1.0" standalone="no"?>
<!DOCTYPE svg PUBLIC "-//W3C//DTD SVG 20010904//EN"
 "http://www.w3.org/TR/2001/REC-SVG-20010904/DTD/svg10.dtd">
<svg version="1.0" xmlns="http://www.w3.org/2000/svg"
 width="382.000000pt" height="334.000000pt" viewBox="0 0 382.000000 334.000000"
 preserveAspectRatio="xMidYMid meet">

<g transform="translate(0.000000,334.000000) scale(0.100000,-0.100000)"
fill="#000000" stroke="none">
<path d="M1388 2893 c18 -2 45 -2 60 0 15 2 0 4 -33 4 -33 0 -45 -2 -27 -4z"/>
<path d="M1253 2883 c15 -2 37 -2 50 0 12 2 0 4 -28 4 -27 0 -38 -2 -22 -4z"/>
<path d="M1495 2882 c3 -4 113 -7 243 -8 574 -5 1071 -14 1117 -20 l50 -8 -50
-12 -50 -12 58 -1 c47 -1 57 -4 57 -18 0 -10 3 -28 6 -40 6 -22 4 -23 -60 -23
-46 0 -65 -3 -60 -11 4 -7 27 -8 65 -4 54 6 59 5 59 -12 0 -10 21 -59 46 -108
l46 -90 -83 -5 -84 -5 66 -8 c37 -4 74 -5 83 -1 12 4 16 0 16 -16 0 -16 -5
-20 -17 -16 -10 3 -40 2 -68 -3 l-50 -9 68 -1 c52 -1 67 -4 67 -16 0 -11 -11
-15 -37 -16 -21 0 -47 -4 -58 -9 -14 -6 -4 -9 38 -9 l57 -1 0 -40 c0 -38 -1
-40 -32 -41 l-33 -1 34 -11 34 -11 -7 -295 c-3 -163 -9 -461 -13 -663 l-6
-368 -23 0 c-13 0 -26 -5 -29 -10 -4 -6 7 -10 24 -10 21 0 31 -5 31 -15 0 -11
-11 -15 -42 -15 -32 0 -39 -3 -28 -10 8 -5 27 -10 43 -10 17 0 27 -5 27 -15 0
-12 -13 -15 -56 -15 -35 0 -53 -4 -49 -10 4 -6 26 -8 56 -4 46 6 49 5 49 -16
0 -21 -3 -22 -47 -18 -27 3 -57 2 -68 -2 -13 -6 2 -9 46 -9 l66 -1 7 -38 c3
-20 6 -49 6 -64 l0 -28 -87 -1 c-59 0 -81 -3 -68 -9 11 -5 53 -6 93 -3 70 6
72 5 72 -17 0 -19 -4 -22 -27 -17 -16 2 -59 1 -98 -3 l-70 -7 98 -2 c87 -1 97
-3 97 -20 0 -16 -6 -17 -47 -14 -27 2 -73 0 -103 -5 -53 -9 -51 -10 48 -11
l102 -1 -13 -32 c-11 -26 -22 -36 -58 -46 l-44 -12 39 5 c82 9 94 49 75 262
-10 120 -10 236 2 642 8 273 14 645 14 826 l0 330 -42 80 c-36 71 -51 127 -53
202 0 24 -31 41 -87 47 -77 9 -1366 16 -1358 8z"/>
<path d="M1175 2870 c-3 -6 1 -7 9 -4 18 7 21 14 7 14 -6 0 -13 -4 -16 -10z"/>
<path d="M993 2775 c-87 -31 -123 -55 -160 -103 -47 -62 -74 -144 -80 -242 -4
-66 -10 -90 -25 -107 -16 -17 -19 -31 -15 -60 3 -23 -3 -65 -16 -107 -19 -68
-19 -69 -1 -83 25 -18 58 -13 60 10 1 12 1 13 -3 2 -5 -18 -34 -20 -50 -4 -11
11 10 90 35 136 7 12 6 23 -4 38 -12 18 -12 24 2 43 8 12 21 22 27 22 8 0 12
27 12 88 1 125 31 209 99 278 30 29 69 57 91 64 55 18 123 50 105 49 -8 -1
-43 -11 -77 -24z"/>
<path d="M2810 2780 c0 -5 20 -10 45 -10 25 0 45 5 45 10 0 6 -20 10 -45 10
-25 0 -45 -4 -45 -10z"/>
<path d="M3000 2787 c0 -3 32 -18 72 -33 148 -56 219 -170 220 -352 0 -68 2
-78 24 -95 24 -18 33 -61 15 -71 -5 -4 3 -36 17 -72 21 -54 24 -69 14 -85 -13
-20 -3 -26 15 -8 11 11 0 67 -25 131 -7 17 -8 29 -2 33 18 11 10 53 -16 84
-20 24 -24 37 -19 59 10 47 -14 162 -47 230 -39 80 -92 125 -177 153 -36 12
-72 24 -78 27 -7 2 -13 2 -13 -1z"/>
<path d="M1030 2748 c0 -11 -19 -27 -49 -42 -61 -31 -125 -103 -145 -163 -19
-54 -21 -155 -5 -219 8 -31 8 -56 1 -85 -8 -30 -7 -38 0 -31 11 11 12 35 7
204 -2 81 1 93 30 152 31 64 78 111 134 137 23 10 30 10 45 -4 10 -10 23 -17
28 -17 5 0 1 5 -8 11 -10 5 -18 18 -18 27 0 9 -5 24 -10 32 -8 13 -10 13 -10
-2z"/>
<path d="M3028 2744 c-5 -4 -8 -17 -8 -29 0 -11 -3 -25 -7 -31 -5 -5 0 -1 9 9
16 17 18 17 55 -2 53 -27 108 -87 134 -146 27 -58 34 -215 12 -222 -15 -5 -17
-56 -4 -81 5 -9 12 -25 15 -34 3 -10 11 -18 18 -17 10 0 10 2 1 6 -7 2 -13 13
-13 23 0 10 -4 22 -10 25 -15 9 -12 61 5 75 11 9 15 34 15 100 0 77 -3 94 -31
148 -33 67 -72 105 -136 134 -23 10 -43 25 -45 34 -2 9 -6 12 -10 8z"/>
<path d="M2811 2680 c9 -5 36 -5 65 -1 l49 9 -65 1 c-44 0 -60 -3 -49 -9z"/>
<path d="M1218 2663 c7 -3 16 -2 19 1 4 3 -2 6 -13 5 -11 0 -14 -3 -6 -6z"/>
<path d="M1280 2660 c-10 -6 67 -9 225 -8 189 1 220 3 145 8 -142 11 -353 11
-370 0z"/>
<path d="M1758 2663 c6 -2 18 -2 25 0 6 3 1 5 -13 5 -14 0 -19 -2 -12 -5z"/>
<path d="M1980 2660 c-136 -8 230 -20 549 -19 252 2 258 2 121 10 -196 10
-566 15 -670 9z"/>
<path d="M1833 2653 c9 -2 25 -2 35 0 9 3 1 5 -18 5 -19 0 -27 -2 -17 -5z"/>
<path d="M2805 2600 c-4 -6 22 -10 72 -9 53 0 72 3 58 9 -28 12 -123 12 -130
0z"/>
<path d="M2830 2550 c0 -6 30 -10 71 -10 44 0 68 4 64 10 -3 6 -35 10 -71 10
-36 0 -64 -4 -64 -10z"/>
<path d="M1342 2483 c-33 -77 -37 -102 -17 -109 24 -9 45 16 51 62 l5 39 -21
-45 c-29 -60 -36 -37 -11 36 24 72 21 81 -7 17z"/>
<path d="M2168 2435 c6 -79 8 -88 17 -52 4 14 0 47 -8 74 l-15 48 6 -70z"/>
<path d="M1028 2190 c10 -465 6 -1286 -7 -1452 -12 -151 -6 -215 22 -234 6 -5
188 -7 402 -4 l390 6 -392 2 -391 2 -12 35 c-9 27 -9 73 -1 188 23 300 23 917
2 1357 l-19 405 6 -305z"/>
<path d="M2640 2448 c0 -10 9 -42 21 -73 15 -40 26 -55 40 -55 27 0 34 41 14
80 -20 38 -30 34 -15 -5 10 -27 6 -64 -6 -52 -3 3 -16 31 -30 64 -13 32 -24
50 -24 41z"/>
<path d="M1617 2355 c-21 -93 -22 -120 -3 -85 13 24 33 160 24 160 -3 0 -12
-34 -21 -75z"/>
<path d="M1717 2306 c-14 -123 -46 -142 -48 -28 -1 49 -3 60 -9 42 -12 -39
-11 -115 2 -128 37 -37 71 25 66 121 l-3 62 -8 -69z"/>
<path d="M2910 2360 c0 -5 18 -10 39 -10 22 0 43 5 46 10 4 6 -12 10 -39 10
-25 0 -46 -4 -46 -10z"/>
<path d="M761 2124 c0 -11 3 -14 6 -6 3 7 2 16 -1 19 -3 4 -6 -2 -5 -13z"/>
<path d="M2875 770 c-4 -6 17 -10 57 -9 44 0 57 3 43 9 -28 12 -93 12 -100 0z"/>
<path d="M2860 720 c0 -13 90 -13 110 0 11 7 -3 10 -47 10 -36 0 -63 -4 -63
-10z"/>
<path d="M2765 520 c25 -11 103 -11 170 0 40 6 25 7 -70 8 -75 0 -113 -3 -100
-8z"/>
<path d="M1928 493 c18 -2 45 -2 60 0 15 2 0 4 -33 4 -33 0 -45 -2 -27 -4z"/>
<path d="M2117 483 c18 -2 50 -2 70 0 21 2 7 4 -32 4 -38 0 -55 -2 -38 -4z"/>
<path d="M2408 473 c34 -2 88 -2 120 0 31 2 3 3 -63 3 -66 0 -92 -1 -57 -3z"/>
<path d="M2748 473 c29 -2 74 -2 100 0 26 2 2 3 -53 3 -55 0 -76 -1 -47 -3z"/>
</g>
</svg>
