<?xml version="1.0" standalone="no"?>
<!DOCTYPE svg PUBLIC "-//W3C//DTD SVG 20010904//EN"
 "http://www.w3.org/TR/2001/REC-SVG-20010904/DTD/svg10.dtd">
<svg version="1.0" xmlns="http://www.w3.org/2000/svg"
 width="423.000000pt" height="343.000000pt" viewBox="0 0 423.000000 343.000000"
 preserveAspectRatio="xMidYMid meet">

<g transform="translate(0.000000,343.000000) scale(0.100000,-0.100000)"
fill="#000000" stroke="none">
<path d="M2898 3329 c-20 -13 14 -21 42 -11 l24 9 -26 5 c-15 3 -32 1 -40 -3z"/>
<path d="M2905 3280 c-4 -6 12 -10 42 -10 35 0 44 3 33 10 -20 13 -67 13 -75
0z"/>
<path d="M2906 3230 c8 -8 27 -8 60 -2 l49 10 -59 1 c-42 1 -57 -2 -50 -9z"/>
<path d="M1438 3213 c12 -2 22 -9 22 -15 0 -6 -10 -8 -24 -4 -14 3 -28 2 -31
-4 -4 -6 8 -10 30 -10 29 0 36 3 33 18 -2 10 -13 17 -28 18 -22 1 -22 0 -2 -3z"/>
<path d="M1254 3186 c-102 -28 -136 -49 -129 -79 39 -169 45 -204 39 -232 -4
-24 -2 -34 10 -38 25 -10 20 -83 -9 -146 -14 -29 -50 -80 -80 -113 -89 -96
-100 -124 -99 -248 2 -83 9 -134 36 -241 34 -134 36 -140 123 -270 48 -74 112
-164 141 -201 75 -93 80 -107 57 -149 -15 -29 -18 -62 -21 -220 -3 -184 -4
-187 -27 -197 -39 -18 -165 -143 -193 -191 -14 -25 -48 -71 -75 -101 -120
-132 -152 -221 -108 -294 24 -39 108 -86 153 -86 16 0 45 -7 65 -15 53 -22 65
-18 14 5 -24 11 -55 20 -70 20 -14 0 -49 11 -76 24 -126 58 -120 165 17 312
35 38 77 91 93 119 35 61 104 131 178 180 31 21 54 42 50 48 -3 6 -1 7 5 3 18
-11 222 92 222 112 0 15 -10 16 -77 13 l-78 -4 65 -11 65 -11 -35 -15 c-21 -9
-58 -13 -92 -12 -36 2 -58 -1 -58 -7 0 -6 19 -11 43 -11 l42 -1 -28 -15 c-16
-8 -38 -14 -50 -12 -21 3 -22 7 -25 151 -2 132 0 152 19 197 26 60 22 80 -30
145 -22 28 -88 120 -146 206 l-106 157 -34 137 c-19 75 -38 174 -41 220 -6 75
-4 87 19 139 14 31 48 80 75 109 72 76 102 141 102 222 0 41 -4 65 -11 65 -7
0 -9 9 -6 22 4 12 -5 69 -18 126 -14 57 -25 112 -25 121 0 20 82 52 190 75 37
8 52 14 35 14 -16 0 -67 -10 -111 -22z"/>
<path d="M2925 3190 c-4 -6 12 -10 40 -10 28 0 44 4 40 10 -3 6 -21 10 -40 10
-19 0 -37 -4 -40 -10z"/>
<path d="M1470 3160 c0 -5 -17 -10 -37 -10 -27 0 -34 -3 -26 -11 15 -15 73 -1
73 17 0 8 -2 14 -5 14 -3 0 -5 -4 -5 -10z"/>
<path d="M2935 3150 l-40 -5 45 -7 c24 -4 50 -3 58 1 21 12 -14 18 -63 11z"/>
<path d="M1480 3121 c0 -5 -17 -13 -37 -19 l-38 -10 50 0 c28 0 45 2 38 4 -7
3 -9 12 -6 20 3 8 2 14 -1 14 -3 0 -6 -4 -6 -9z"/>
<path d="M2907 3089 c8 -8 25 -9 60 -1 l48 10 -59 1 c-44 1 -57 -2 -49 -10z"/>
<path d="M1425 3050 c28 -12 63 -12 70 0 4 6 -12 10 -42 9 -36 0 -43 -3 -28
-9z"/>
<path d="M2900 3050 c0 -5 18 -10 40 -10 22 0 40 5 40 10 0 6 -18 10 -40 10
-22 0 -40 -4 -40 -10z"/>
<path d="M2805 3010 l-80 -6 60 -4 c77 -5 157 -1 192 10 34 10 -46 10 -172 0z"/>
<path d="M1411 3000 c10 -6 34 -6 60 -1 l44 9 -60 1 c-42 0 -55 -2 -44 -9z"/>
<path d="M2661 2963 c0 -13 -32 -65 -71 -115 -38 -51 -90 -133 -115 -183 -63
-125 -78 -203 -73 -390 3 -128 7 -157 26 -199 29 -63 28 -110 -3 -192 l-25
-66 2 -612 2 -611 6 615 5 615 28 62 c32 74 34 131 7 187 -40 83 -50 241 -25
396 19 118 83 253 180 383 46 62 65 95 62 110 -4 22 -4 22 -6 0z"/>
<path d="M1417 2950 c11 -5 43 -5 70 0 48 8 48 8 -22 8 -49 1 -64 -2 -48 -8z"/>
<path d="M3015 2917 c193 -271 223 -343 232 -555 7 -150 -7 -257 -38 -296 -27
-35 -24 -92 11 -183 l30 -78 0 -633 0 -634 -29 7 c-17 3 -32 2 -36 -4 -4 -7 7
-11 30 -11 49 0 42 -24 -8 -28 -20 -2 -37 -8 -37 -14 0 -6 13 -8 35 -4 28 6
35 4 35 -9 0 -10 -10 -15 -27 -16 -16 0 -37 -4 -48 -9 -15 -7 -10 -9 23 -9 67
-1 48 -25 -24 -31 l-59 -5 53 -8 c56 -8 62 -15 35 -39 -51 -45 -161 -62 -217
-33 -40 21 -89 19 -111 -5 -23 -25 -75 -40 -145 -40 -60 0 -110 23 -130 59 -8
17 -20 21 -53 19 -40 -1 -41 -1 -7 -5 23 -3 48 -17 72 -41 33 -31 45 -36 97
-40 78 -6 121 3 165 33 43 29 67 31 101 9 31 -20 105 -22 168 -5 57 16 90 52
114 124 16 47 18 115 21 714 l3 662 -31 78 c-35 92 -37 119 -10 171 27 51 40
135 40 252 -1 130 -22 237 -64 326 -36 77 -133 223 -187 284 l-31 35 27 -38z"/>
<path d="M2713 2933 c9 -2 23 -2 30 0 6 3 -1 5 -18 5 -16 0 -22 -2 -12 -5z"/>
<path d="M2810 2930 c-50 -6 -46 -7 35 -8 50 0 99 3 110 8 24 10 -61 10 -145
0z"/>
<path d="M1425 2910 c5 -8 -17 -16 -135 -49 -47 -13 -19 -13 58 -1 69 12 151
37 167 51 5 5 -12 9 -44 9 -31 0 -50 -4 -46 -10z"/>
<path d="M1579 2826 c13 -16 51 -41 51 -33 0 2 -15 14 -32 27 -21 15 -28 17
-19 6z"/>
<path d="M1525 2794 c-40 -15 -168 -49 -215 -57 -14 -3 7 -3 45 0 83 5 158 25
200 53 35 23 26 24 -30 4z"/>
<path d="M1640 2786 c0 -2 35 -29 78 -59 121 -87 200 -204 226 -337 10 -47 24
-107 32 -134 24 -85 19 -120 -33 -212 l-48 -84 -57 0 c-48 0 -56 2 -53 18 11
57 14 86 6 72 -16 -28 -42 -155 -44 -215 l-2 -60 43 -3 c29 -2 42 0 37 7 -3 6
-22 11 -41 11 -52 0 -43 24 11 28 l45 2 0 -40 0 -40 -49 0 c-30 0 -51 5 -54
13 -3 6 -6 -16 -6 -49 -1 -96 31 -187 85 -240 25 -23 54 -46 66 -50 20 -6 21
-11 15 -113 -4 -62 -14 -132 -26 -168 -21 -65 -42 -193 -40 -246 1 -18 7 12
14 66 8 54 23 127 35 162 12 35 25 111 30 174 9 111 9 112 -21 177 -28 64 -29
70 -29 232 l0 166 76 134 75 134 -9 57 c-22 126 -65 289 -89 333 -45 83 -116
161 -196 216 -42 29 -77 51 -77 48z m209 -842 c44 -9 28 -24 -25 -24 -32 0
-44 4 -44 15 0 16 19 19 69 9z m-1 -44 c28 0 -1 -17 -40 -24 -34 -6 -38 -5
-38 15 0 19 4 21 31 15 17 -3 39 -6 47 -6z m-8 -55 c0 -11 -11 -15 -40 -15
-29 0 -40 4 -40 15 0 11 11 15 40 15 29 0 40 -4 40 -15z m0 -155 l0 -40 -45 2
c-55 2 -65 28 -10 28 19 0 35 5 35 10 0 6 -18 10 -40 10 -61 0 -52 24 10 27
l50 2 0 -39z m0 -65 c0 -11 -11 -15 -40 -15 -26 0 -40 4 -40 13 0 8 15 14 40
15 30 2 40 -1 40 -13z m0 -49 c0 -18 -64 -14 -68 5 -2 12 5 14 33 11 19 -2 35
-9 35 -16z m3 -46 c4 -15 0 -20 -17 -20 -11 0 -27 9 -34 20 -11 18 -10 20 17
20 20 0 30 -6 34 -20z m21 -46 c4 -11 0 -15 -16 -12 -12 2 -23 9 -26 16 -6 18
35 15 42 -4z m21 -45 c11 -17 -1 -21 -15 -4 -8 9 -8 15 -2 15 6 0 14 -5 17
-11z"/>
<path d="M1775 2381 c-34 -26 -72 -64 -86 -82 -28 -39 -66 -99 -52 -84 5 6 53
56 108 113 54 56 97 102 94 102 -2 0 -31 -22 -64 -49z"/>
<path d="M1293 2321 c31 -16 100 -59 152 -96 105 -73 143 -87 166 -58 13 16
12 17 -3 5 -24 -19 -43 -10 -133 58 -93 70 -157 105 -205 115 -31 5 -28 2 23
-24z"/>
<path d="M3078 1955 c-3 -38 1 -73 10 -95 8 -20 18 -99 23 -184 4 -82 11 -151
15 -155 3 -3 4 56 2 132 l-5 137 31 9 31 9 -32 1 c-38 1 -46 27 -10 34 21 3
21 4 2 11 -11 4 -27 10 -35 13 -11 3 -9 8 10 18 l25 14 -27 1 c-18 0 -28 5
-28 15 0 9 9 15 25 15 14 0 25 5 25 11 0 7 -10 9 -25 5 -20 -5 -25 -3 -25 13
0 14 5 18 19 14 10 -3 22 0 25 6 5 7 -2 11 -18 11 -13 0 -26 6 -29 13 -2 6 -6
-15 -9 -48z"/>
<path d="M1477 1650 c4 -36 7 -75 7 -87 1 -13 4 -23 9 -23 13 0 8 -30 -5 -31
-7 0 -3 -5 10 -11 27 -14 29 -28 2 -28 -11 0 -20 -4 -20 -10 0 -5 11 -10 24
-10 13 0 27 -7 30 -16 5 -13 1 -15 -18 -12 -14 3 -31 1 -38 -3 -8 -6 3 -9 30
-9 31 0 42 -4 42 -15 0 -11 -11 -15 -40 -15 -22 0 -40 -5 -40 -11 0 -6 17 -9
43 -7 l42 3 6 -50 6 -50 1 66 c2 47 -5 86 -24 140 -14 41 -36 112 -50 159
l-24 85 7 -65z"/>
<path d="M3118 1310 c-4 -30 -8 -160 -8 -288 0 -251 -3 -269 -57 -341 l-26
-36 26 24 c15 14 39 48 52 76 l25 51 -2 284 c-2 178 -6 264 -10 230z"/>
<path d="M1460 1330 c-11 -7 1 -10 39 -10 30 0 52 2 50 4 -11 10 -76 14 -89 6z"/>
<path d="M1450 1280 c0 -12 57 -12 85 0 15 6 6 9 -32 9 -29 1 -53 -3 -53 -9z"/>
<path d="M1460 1240 c-27 -6 -18 -8 40 -8 50 0 68 2 55 8 -23 10 -47 10 -95 0z"/>
<path d="M1823 780 c0 -30 2 -43 4 -27 2 15 2 39 0 55 -2 15 -4 2 -4 -28z"/>
<path d="M1812 615 c0 -16 2 -22 5 -12 2 9 2 23 0 30 -3 6 -5 -1 -5 -18z"/>
<path d="M1811 564 c0 -11 3 -14 6 -6 3 7 2 16 -1 19 -3 4 -6 -2 -5 -13z"/>
<path d="M2412 520 c0 -19 2 -27 5 -17 2 9 2 25 0 35 -3 9 -5 1 -5 -18z"/>
<path d="M1190 508 c-14 -5 -56 -13 -95 -18 l-70 -7 75 -1 c56 -1 84 4 110 18
37 20 23 26 -20 8z"/>
<path d="M1309 506 c18 -9 49 -30 68 -46 19 -17 45 -30 61 -30 15 0 46 -11 70
-25 23 -13 42 -20 42 -15 0 13 -83 60 -106 60 -11 0 -38 14 -61 30 -22 17 -56
33 -74 36 l-34 5 34 -15z"/>
<path d="M1796 473 c-6 -14 -5 -15 5 -6 7 7 10 15 7 18 -3 3 -9 -2 -12 -12z"/>
<path d="M2421 454 c0 -11 3 -14 6 -6 3 7 2 16 -1 19 -3 4 -6 -2 -5 -13z"/>
<path d="M1764 428 l-19 -23 23 19 c21 18 27 26 19 26 -2 0 -12 -10 -23 -22z"/>
<path d="M2430 424 c0 -17 40 -64 53 -63 8 0 7 3 -1 6 -8 3 -22 19 -33 37 -10
17 -19 26 -19 20z"/>
<path d="M1710 366 c-18 -19 -42 -37 -54 -39 -20 -4 -20 -4 -1 -5 23 -2 30 3
69 46 40 43 29 41 -14 -2z"/>
<path d="M1251 356 c2 -2 22 -6 44 -9 28 -5 34 -4 20 3 -19 8 -73 14 -64 6z"/>
<path d="M3045 350 c7 -12 82 -12 110 0 14 6 -1 9 -48 9 -43 1 -66 -3 -62 -9z"/>
<path d="M1208 343 c7 -3 16 -2 19 1 4 3 -2 6 -13 5 -11 0 -14 -3 -6 -6z"/>
<path d="M1480 338 c64 -17 85 -19 45 -4 -22 9 -49 15 -60 15 -11 -1 -5 -5 15
-11z"/>
<path d="M1363 333 c15 -2 39 -2 55 0 15 2 2 4 -28 4 -30 0 -43 -2 -27 -4z"/>
</g>
</svg>
